<svg width="144" height="451" viewBox="0 0 144 451" fill="none" xmlns="http://www.w3.org/2000/svg">
<path d="M71.9974 286.786C106.107 286.786 133.758 259.135 133.758 225.025C133.758 190.916 106.107 163.265 71.9974 163.265C37.888 163.265 10.2368 190.916 10.2368 225.025C10.2368 259.135 37.888 286.786 71.9974 286.786Z" stroke="white" stroke-width="20.428" stroke-miterlimit="10"/>
<path d="M71.9974 440.307C106.107 440.307 133.758 412.656 133.758 378.547C133.758 344.437 106.107 316.786 71.9974 316.786C37.888 316.786 10.2368 344.437 10.2368 378.547C10.2368 412.656 37.888 440.307 71.9974 440.307Z" stroke="white" stroke-width="20.428" stroke-miterlimit="10"/>
<path d="M71.9973 133.758C106.107 133.758 133.758 106.107 133.758 71.9972C133.758 37.8878 106.107 10.2367 71.9973 10.2367C37.8879 10.2367 10.2368 37.8878 10.2368 71.9972C10.2368 106.107 37.8879 133.758 71.9973 133.758Z" stroke="white" stroke-width="20.428" stroke-miterlimit="10"/>
</svg>
