{
    "asset" : {
        "generator" : "Khronos glTF Blender I/O v3.4.50",
        "version" : "2.0"
    },
    "scene" : 0,
    "scenes" : [
        {
            "name" : "Scene",
            "nodes" : [
                0
            ]
        }
    ],
    "nodes" : [
        {
            "mesh" : 0,
            "name" : "Screw",
            "rotation" : [
                0.2612064778804779,
                -0.30717340111732483,
                -0.9147264361381531,
                0.026290686801075935
            ],
            "scale" : [
                -0.7192896604537964,
                -0.7192896604537964,
                -0.7192896604537964
            ],
            "translation" : [
                0.01870891824364662,
                3.223785824957304e-05,
                -1.124725103378296
            ]
        }
    ],
    "animations" : [
        {
            "channels" : [
                {
                    "sampler" : 0,
                    "target" : {
                        "node" : 0,
                        "path" : "translation"
                    }
                },
                {
                    "sampler" : 1,
                    "target" : {
                        "node" : 0,
                        "path" : "rotation"
                    }
                },
                {
                    "sampler" : 2,
                    "target" : {
                        "node" : 0,
                        "path" : "scale"
                    }
                }
            ],
            "name" : "Screw",
            "samplers" : [
                {
                    "input" : 3,
                    "interpolation" : "LINEAR",
                    "output" : 4
                },
                {
                    "input" : 3,
                    "interpolation" : "LINEAR",
                    "output" : 5
                },
                {
                    "input" : 3,
                    "interpolation" : "LINEAR",
                    "output" : 6
                }
            ]
        }
    ],
    "materials" : [
        {
            "alphaMode" : "BLEND",
            "doubleSided" : true,
            "name" : "Material",
            "pbrMetallicRoughness" : {}
        }
    ],
    "meshes" : [
        {
            "name" : "Screw",
            "primitives" : [
                {
                    "attributes" : {
                        "POSITION" : 0,
                        "NORMAL" : 1
                    },
                    "indices" : 2,
                    "material" : 0
                }
            ]
        }
    ],
    "accessors" : [
        {
            "bufferView" : 0,
            "componentType" : 5126,
            "count" : 33028,
            "max" : [
                1.3698463439941406,
                1.3915715217590332,
                1.3212199211120605
            ],
            "min" : [
                -1.4101276397705078,
                -1.3927868604660034,
                -1.313299536705017
            ],
            "type" : "VEC3"
        },
        {
            "bufferView" : 1,
            "componentType" : 5126,
            "count" : 33028,
            "type" : "VEC3"
        },
        {
            "bufferView" : 2,
            "componentType" : 5123,
            "count" : 198144,
            "type" : "SCALAR"
        },
        {
            "bufferView" : 3,
            "componentType" : 5126,
            "count" : 20,
            "max" : [
                0.8333333333333334
            ],
            "min" : [
                0.041666666666666664
            ],
            "type" : "SCALAR"
        },
        {
            "bufferView" : 4,
            "componentType" : 5126,
            "count" : 20,
            "type" : "VEC3"
        },
        {
            "bufferView" : 5,
            "componentType" : 5126,
            "count" : 20,
            "type" : "VEC4"
        },
        {
            "bufferView" : 6,
            "componentType" : 5126,
            "count" : 20,
            "type" : "VEC3"
        }
    ],
    "bufferViews" : [
        {
            "buffer" : 0,
            "byteLength" : 396336,
            "byteOffset" : 0,
            "target" : 34962
        },
        {
            "buffer" : 0,
            "byteLength" : 396336,
            "byteOffset" : 396336,
            "target" : 34962
        },
        {
            "buffer" : 0,
            "byteLength" : 396288,
            "byteOffset" : 792672,
            "target" : 34963
        },
        {
            "buffer" : 0,
            "byteLength" : 80,
            "byteOffset" : 1188960
        },
        {
            "buffer" : 0,
            "byteLength" : 240,
            "byteOffset" : 1189040
        },
        {
            "buffer" : 0,
            "byteLength" : 320,
            "byteOffset" : 1189280
        },
        {
            "buffer" : 0,
            "byteLength" : 240,
            "byteOffset" : 1189600
        }
    ],
    "buffers" : [
        {
            "byteLength" : 1189840,
            "uri" : "data:application/octet-stream;base64,"
        }
    ]
}
