<svg width="23" height="22" viewBox="0 0 23 22" fill="none" xmlns="http://www.w3.org/2000/svg">
<path d="M20.6335 0.905334C20.4757 0.747451 20.2197 0.747451 20.0618 0.905333L1.21419 19.7529C1.05631 19.9108 1.05631 20.1668 1.21419 20.3247L2.1774 21.2879C2.33528 21.4458 2.59126 21.4458 2.74914 21.2879L21.5968 2.44028C21.7546 2.2824 21.7546 2.02642 21.5968 1.86854L20.6335 0.905334Z" fill="#0061FE" stroke="#0061FE" stroke-width="0.808576" stroke-linejoin="round"/>
<path d="M21.5128 20.9514C21.736 20.9514 21.9171 20.7704 21.9171 20.5471V0.997803C21.9171 0.774521 21.736 0.593515 21.5128 0.593515H2.00027C1.77699 0.593515 1.59599 0.774521 1.59599 0.997803V2.39681C1.59599 2.62009 1.77699 2.8011 2.00027 2.8011H19.7463V20.5471C19.7463 20.7704 19.9273 20.9514 20.1506 20.9514H21.5128Z" fill="#0061FE" stroke="#0061FE" stroke-width="0.808576" stroke-linejoin="round"/>
</svg>
