<svg width="237" height="72" viewBox="0 0 237 72" fill="none" xmlns="http://www.w3.org/2000/svg">
<g clip-path="url(#clip0_232_433)">
<path d="M113.704 10.4213C90.6754 10.26 67.2464 10.4005 44.8201 15.6315C34.1288 18.1235 23.5135 21.7469 14.2168 27.1289C7.38453 31.0879 -0.766228 37.5831 0.0582022 45.6157C0.619517 51.0886 5.18897 54.967 10.3256 57.5266C16.2048 60.4556 22.8616 62.1229 29.4015 63.4183C35.117 64.5499 40.9055 65.3406 46.6882 66.134C59.271 67.8638 72.0088 68.8315 84.6998 69.6638C101.162 70.7433 117.689 71.4769 134.192 71.724C151.923 71.9919 169.762 71.6382 187.336 69.3517C195.191 68.3294 203.032 66.8962 210.542 64.5733C217.328 62.4741 224.414 59.6648 229.519 55.0372C232.787 52.0745 235.351 48.3469 236.038 44.1902C236.69 40.2546 235.813 36.41 233.933 32.8307C229.966 25.2716 222.081 19.6348 214.03 15.7043C197.126 7.45069 177.697 3.89484 158.706 1.98555C138.946 -0.00177574 118.975 -0.0381928 99.1273 0.713557C94.7391 0.880035 90.3538 1.08813 85.9686 1.32744C83.1649 1.48091 83.1444 5.38273 85.9686 5.22926C104.74 4.20698 123.585 3.74397 142.372 4.6778C161.457 5.62724 180.834 7.90851 198.845 13.8445C206.958 16.5159 215.167 19.9625 221.675 25.1207C227.399 29.6572 232.945 36.3605 231.767 43.3968C230.592 50.4123 223.792 54.9696 217.123 57.9376C214.092 59.2876 211.273 60.2683 207.949 61.2385C204.359 62.2894 200.696 63.14 197.004 63.8553C180.553 67.0418 163.532 67.7702 146.734 67.882C131.002 67.9861 115.286 67.3566 99.5804 66.6048C80.0368 65.6684 60.4697 64.2403 41.1423 61.4336C34.8158 60.5154 28.4952 59.4307 22.3646 57.7451C19.1546 56.8607 16.4825 55.9867 13.6584 54.6913C12.3779 54.106 11.1325 53.4557 9.95429 52.7196C9.68825 52.5531 9.42221 52.3814 9.16495 52.2045C9.50992 52.4412 8.82289 51.9496 8.71472 51.869C8.20019 51.4788 7.70319 51.0652 7.23835 50.6256C7.01324 50.4123 6.80275 50.1912 6.58641 49.9701C6.5104 49.8921 6.25897 49.6059 6.54548 49.9363C6.45777 49.8348 6.37007 49.7308 6.28529 49.6241C5.91108 49.1403 5.56025 48.6487 5.26498 48.1232C5.21528 48.0322 5.1685 47.9411 5.1188 47.8501C4.87031 47.3923 5.27667 48.2377 5.07495 47.7617C4.97555 47.5249 4.87908 47.2908 4.79722 47.0489C4.71536 46.807 4.64227 46.5625 4.58088 46.3154C4.54872 46.1905 4.52825 46.0631 4.4961 45.9408C4.36454 45.431 4.50487 46.1749 4.46394 45.7717C4.40839 45.2411 4.385 44.7104 4.41424 44.1746C4.42885 43.8963 4.45517 43.6179 4.4961 43.3422C4.42885 43.813 4.52241 43.2408 4.53702 43.1783C4.57795 43.004 4.61304 42.8298 4.65689 42.6555C5.10126 40.8971 6.09233 39.3623 7.26466 37.8771C9.92214 34.5163 13.7402 31.9697 17.6227 29.8263C22.1424 27.3317 26.9282 25.2352 31.8689 23.4898C52.6727 16.1439 75.2539 14.5676 97.4258 14.3231C102.855 14.2633 108.284 14.2841 113.713 14.3231C116.534 14.3439 116.537 10.4421 113.713 10.4213H113.704Z" fill="#0061FE"/>
</g>
<defs>
<clipPath id="clip0_232_433">
<rect width="236.252" height="71.5411" fill="white" transform="translate(0 0.260803)"/>
</clipPath>
</defs>
</svg>
